<?xml version="1.0" standalone="no"?><!DOCTYPE svg PUBLIC "-//W3C//DTD SVG 1.1//EN" "http://www.w3.org/Graphics/SVG/1.1/DTD/svg11.dtd"><svg t="1553676360360" class="icon" style="" viewBox="0 0 1024 1024" version="1.1" xmlns="http://www.w3.org/2000/svg" p-id="21443" xmlns:xlink="http://www.w3.org/1999/xlink" width="200" height="200"><defs><style type="text/css"></style></defs><path d="M511.706823 960.431196c-60.554144 0-119.318526-11.869329-174.660972-35.276435-53.43398-22.601764-101.413737-54.94745-142.606929-96.140641-41.193191-41.193191-73.5399-89.173972-96.140641-142.606929-23.408129-55.342446-35.276435-114.106828-35.276435-174.660972s11.869329-119.319549 35.276435-174.660972c22.600741-53.43398 54.94745-101.414761 96.140641-142.607952 41.193191-41.193191 89.173972-73.5399 142.606929-96.140641C392.388297 74.928526 451.151655 63.059198 511.706823 63.059198c60.554144 0 119.319549 11.869329 174.661995 35.276435 53.43398 22.600741 101.413737 54.94745 142.606929 96.140641 41.193191 41.193191 73.538877 89.173972 96.140641 142.607952 23.407106 55.342446 35.276435 114.106828 35.276435 174.660972 0 60.995189-12.037151 120.153544-35.774785 175.834704-22.918989 53.759391-55.69651 101.939717-97.420797 143.202493-15.880689 15.706727-41.491996 15.566534-57.199747-0.319272-15.70775-15.882736-15.565511-41.491996 0.319272-57.199747 70.40756-69.628824 109.181655-162.504094 109.181655-261.518179 0-202.800869-164.989705-367.791597-367.790574-367.791597S143.916249 308.944328 143.916249 511.74622c0 202.799846 164.989705 367.790574 367.790574 367.790574 47.202045 0 93.14133-8.804527 136.540769-26.167986 20.742417-8.299013 44.279483 1.788739 52.578496 22.529109 8.296967 20.74037-1.788739 44.279483-22.529109 52.578496C625.297904 949.679317 569.248354 960.431196 511.706823 960.431196zM693.607686 406.179906 475.97297 624.170732 341.903485 488.887606c-15.869433-16.003486-41.631166-16.003486-57.500599 0-15.870456 16.004509-15.870456 41.953508 0 57.958016L443.647751 705.778378c0.008186 0.00614 0.021489 0.01228 0.029676 0.01842 18.279319 18.252713 47.894823 18.24555 66.162886-0.022513 1.030469-1.029446 1.992377-2.100848 2.907213-3.197832 0.464581-0.204661 0.769526-0.412392 0.873903-0.62217l236.592486-238.727103c15.871479-16.004509 16.780175-41.041742 0.893346-57.046251C735.236805 390.175397 709.477119 390.175397 693.607686 406.179906z" p-id="21444"></path></svg>